<svg width="220" height="44" viewBox="0 0 220 44" fill="none" xmlns="http://www.w3.org/2000/svg">
<path d="M44 22.0001C44 34.142 34.1472 43.9904 22 43.9904C9.85276 43.9904 0 34.142 0 22.0001C0 9.8582 9.85276 0.00976562 22 0.00976562C34.1472 0.00976562 44 9.8582 44 22.0001Z" fill="white"/>
<path fill-rule="evenodd" clip-rule="evenodd" d="M15.6647 27.55C13.6672 32.8835 10.7968 35.4917 4.97515 35.9144C2.04181 32.3438 0.206229 27.8378 0.0172723 22.8552C-0.459619 10.7222 8.99723 0.496062 21.1355 0.0103854C21.6394 -0.00760263 22.1432 0.00139138 22.6471 0.0103854L18.751 16.9281C17.7073 21.3082 16.8794 24.3212 15.6647 27.55ZM31.8352 2.33105C38.7726 5.80274 43.6585 12.845 43.9824 21.1465C44.4503 33.2884 34.9934 43.5056 22.8462 43.9823C16.9885 44.2161 11.5718 42.1205 7.48669 38.5319C12.6335 38.6219 16.8356 37.4436 20.1468 34.6375C24.0429 31.3907 26.1574 26.9027 27.966 19.1948L31.8352 2.33105Z" fill="#BE1621"/>
<path fill-rule="evenodd" clip-rule="evenodd" d="M148.66 26.0894C148.557 26.5807 148.455 27.0712 148.358 27.5703L150.481 27.0037C150.585 26.071 150.944 24.4075 151.133 23.5319C151.174 23.3435 151.207 23.1916 151.227 23.0913C152.037 21.7062 153.953 19.8085 154.699 19.8085C155.167 19.8085 155.131 20.2941 154.924 21.1576L153.836 25.8794C153.548 27.0936 153.809 27.5523 154.357 27.5523C154.825 27.5523 156.579 26.6889 157.667 25.6366L157.406 25.1329C156.885 25.5556 156.156 25.9783 155.994 25.9783C155.814 25.9783 155.85 25.7895 155.976 25.2678C156.174 24.3502 156.379 23.4272 156.578 22.5343C156.741 21.7995 156.9 21.0851 157.047 20.4111C157.451 18.5583 156.723 18.3155 156.264 18.3155C155.967 18.3155 155.563 18.4234 155.158 18.6212C154.294 19.026 152.945 19.9703 151.551 21.5443H151.515L153.125 13.9444C153.242 13.3418 153.206 13 152.963 13C152.892 13 152.491 13.0982 151.922 13.2374L151.922 13.2374L151.922 13.2374C151.203 13.4133 150.218 13.6546 149.294 13.8454V14.3311H150.265C150.958 14.3311 150.976 14.43 150.814 15.2395L148.979 24.5213C148.877 25.0522 148.769 25.5712 148.66 26.0894ZM134.84 26.8325C132.844 26.8325 131.872 24.5301 131.692 23.3788L131.054 23.4598C131.078 24.2263 131.095 24.9003 131.108 25.4251L131.108 25.426C131.118 25.8553 131.127 26.1846 131.135 26.3828C131.494 26.9674 132.969 27.651 134.624 27.651C137.143 27.651 139.382 25.9961 139.382 23.3698C139.382 21.7149 138.339 20.6626 137.026 19.8172L136.342 19.3765C135.353 18.7289 134.588 18.0634 134.588 16.9931C134.588 15.7609 135.317 14.7356 136.81 14.7356C138.735 14.7356 139.13 16.3905 139.274 17.4788L139.904 17.4158C139.907 17.2134 139.91 17.0213 139.912 16.8374C139.924 15.9917 139.933 15.3189 139.985 14.6097C139.854 14.5585 139.709 14.5 139.528 14.4276L139.528 14.4273C139.423 14.3853 139.307 14.3386 139.175 14.2859C138.456 14.0071 137.79 13.9261 137.143 13.9261C134.741 13.9261 132.664 15.4371 132.664 17.8745C132.664 19.4844 133.896 20.5187 135.065 21.2652L135.551 21.571C136.639 22.2546 137.323 23.064 137.323 24.3142C137.323 25.5824 136.558 26.8325 134.84 26.8325ZM62.039 14.1991L62.037 14.2081H56.4177L56.3188 14.7747C57.9917 14.8917 58.1176 15.0356 57.7129 17.2121L56.4447 24.1465C56.2288 25.3157 56.04 26.2241 55.6802 27.2314C55.3025 28.2388 54.6369 29.1831 53 29.408L53.0809 29.9746L53.2608 29.9926C53.8814 29.9926 54.493 29.8937 55.0326 29.7318C57.2991 29.0302 58.0816 27.0516 58.4863 24.7941L59.8534 17.2301C60.2582 15.0266 60.465 14.8827 61.9131 14.7658L62.037 14.2081H62.039V14.1991ZM61.4566 20.3684C62.6438 19.2622 64.1548 18.3088 64.9013 18.3088C65.387 18.3088 65.5849 18.8124 65.36 19.8198L64.3077 24.4787C64.1278 25.468 64.0829 26.0346 64.5146 26.0346C64.8743 26.0346 65.5669 25.4051 66.2684 24.5866C66.9699 23.7771 67.6985 22.7878 68.0582 22.0683C68.1841 21.6276 68.5619 19.9727 68.7418 18.8574L70.5945 18.3088H70.8374L70.8373 18.3088C70.3337 20.6293 69.83 22.9497 69.3623 25.2701L69.3428 25.3726C69.2581 25.8156 69.2283 25.9717 69.3623 25.9717C69.5242 25.9717 70.2527 25.549 70.7744 25.1262L71.0532 25.6299C69.9469 26.6822 68.1931 27.5456 67.8244 27.5456C67.1948 27.5456 67.0329 26.925 67.2757 25.8098L67.7164 23.7951H67.6535C66.6462 25.3061 65.351 26.4753 64.4696 27.024C63.9839 27.3298 63.4353 27.5456 62.9586 27.5456C62.5359 27.5456 61.7084 27.2668 62.2121 24.9823L63.1025 20.926L63.1147 20.8711C63.2675 20.1844 63.3225 19.9367 63.1385 19.9367C62.9586 19.9367 62.1851 20.3954 61.6815 20.8631L61.4566 20.3684ZM75.1451 18.3172C74.3536 18.3172 72.9416 19.5404 72.0781 20.5118L72.303 20.9525C73.0495 20.3139 73.4902 20.0081 73.715 20.0081C73.9456 20.0081 73.9897 20.4623 74.0629 21.2166L74.0748 21.3392C74.1917 22.1037 74.3806 25.8992 74.4166 27.5541H75.208C76.0136 26.6057 77.0006 25.2799 77.9339 24.0262L77.9339 24.0262L77.9341 24.026L77.9341 24.026L77.9341 24.0259C78.47 23.3061 78.9882 22.61 79.4442 22.0228C80.5775 20.5567 80.9192 20.0261 80.9192 19.4235C80.9192 18.7399 80.4965 18.3172 79.9299 18.3172C79.3273 18.3172 78.8056 18.8389 78.8236 19.3246C78.8236 19.3711 78.8504 19.4402 78.8855 19.5306C78.9521 19.7023 79.0485 19.9509 79.0485 20.2689C79.0485 21.0154 78.5358 21.8878 77.8343 22.9132C77.3036 23.6777 76.8629 24.2982 76.1974 25.1707H76.1524C76.1524 23.7046 76.0535 21.627 75.9725 20.4128C75.8736 19.0457 75.7297 18.3172 75.1451 18.3172ZM87.9866 25.2252C85.9899 27.2398 84.2361 27.5456 83.3637 27.5456C82.4193 27.5456 81.0432 26.961 81.0432 24.6046C81.0432 22.7518 81.9516 20.6292 83.4267 19.559C84.2901 18.9294 85.5043 18.3088 86.6375 18.3088C87.8877 18.3088 88.5982 19.0103 88.5982 19.9187C88.5982 21.7715 85.1535 23.0486 83.2378 23.6512C83.2198 23.7771 83.2018 23.957 83.2018 24.056C83.2018 25.0003 83.4806 26.1965 84.6768 26.1965C85.4683 26.1965 86.5116 25.7918 87.6628 24.7485L87.9866 25.2252ZM85.0816 19.424C84.5149 19.7478 83.6515 20.6922 83.3097 22.9767C85.7291 22.1492 86.5926 21.2858 86.5926 20.1526C86.5926 19.4061 86.0439 19.2082 85.7471 19.2082C85.5223 19.1992 85.2794 19.2981 85.0816 19.424ZM93.178 18.3088C92.5125 18.3088 91.0195 19.2622 89.8502 20.3684L90.1111 20.8811C90.5967 20.4224 91.3612 19.9367 91.5681 19.9367C91.729 19.9367 91.6678 20.2121 91.5081 20.9307L91.5051 20.944L90.7766 24.2538C90.5338 25.3691 90.2909 26.4574 89.9941 27.5636L92.1887 27.024C92.3056 25.8907 92.7913 23.6782 92.9352 23.2105C93.7177 21.8164 95.7773 19.8198 96.4608 19.8198C96.9465 19.8198 96.8656 20.3055 96.6677 21.1689L95.5165 25.8907C95.2197 27.1049 95.4625 27.5636 96.0651 27.5636C96.4968 27.5636 98.2506 26.7002 99.3569 25.6479L99.0961 25.1442C98.5474 25.5669 97.8189 25.9897 97.639 25.9897C97.4951 25.9897 97.5311 25.8098 97.657 25.2612C98.0438 23.6063 98.4485 21.9154 98.7093 20.8631C99.258 18.5606 98.4665 18.3178 98.0258 18.3178C97.72 18.3178 97.3512 18.4167 96.8116 18.6775C96.0831 19.0193 94.689 19.9637 93.3219 21.6186H93.259L93.6007 20.1436C93.8616 19.0193 93.8436 18.3088 93.178 18.3088ZM105.474 16.1148L104.808 18.795H107.29L106.643 19.5235L104.628 19.6224L103.477 24.8839C103.315 25.6484 103.396 25.9902 103.594 25.9902C103.954 25.9902 104.907 25.2077 105.411 24.722L105.752 25.1447C105.105 25.9542 103.171 27.5461 102.164 27.5461C101.534 27.5461 101.093 26.8356 101.498 24.9649L102.649 19.6224H101.111L100.95 19.3616L101.552 18.795H102.82L103.18 17.302L105.195 15.9079L105.474 16.1148ZM111.112 18.3088C110.365 18.3088 108.854 19.2622 107.667 20.3684L107.901 20.8631C108.413 20.3954 109.178 19.9367 109.358 19.9367C109.542 19.9367 109.487 20.1844 109.334 20.8711L109.322 20.926L108.431 24.9823C107.928 27.2668 108.755 27.5456 109.178 27.5456C109.655 27.5456 110.203 27.3298 110.689 27.024C111.57 26.4753 112.865 25.3061 113.873 23.7951H113.936L113.495 25.8098C113.252 26.925 113.414 27.5456 114.044 27.5456C114.412 27.5456 116.166 26.6822 117.273 25.6299L116.994 25.1262C116.472 25.549 115.744 25.9717 115.582 25.9717C115.448 25.9717 115.477 25.8156 115.562 25.3726L115.582 25.2701C116.049 22.9497 116.553 20.6292 117.057 18.3088H116.814L114.961 18.8574C114.781 19.9727 114.403 21.6276 114.278 22.0683C113.918 22.7878 113.189 23.7771 112.488 24.5866C111.786 25.4051 111.094 26.0346 110.734 26.0346C110.302 26.0346 110.347 25.468 110.527 24.4787L111.579 19.8198C111.795 18.8124 111.597 18.3088 111.112 18.3088ZM124.664 19.3593C124.664 19.6651 124.502 19.9619 124.241 20.1688C123.899 20.4296 123.657 20.4116 123.513 20.2497C123.153 19.845 122.586 19.4223 121.957 19.4223C121.435 19.4223 120.931 19.827 120.931 20.4476C120.931 21.0502 121.696 21.5539 122.343 21.9226C123.558 22.6062 124.142 23.2537 124.142 24.1172C124.124 25.808 122.209 27.5439 120.266 27.5439C119.501 27.5439 118.206 26.9952 118.188 26.2757C118.188 25.871 118.467 25.4663 118.773 25.2864C119.097 25.0885 119.339 25.1425 119.537 25.3673C120.203 26.0779 120.931 26.3747 121.489 26.3747C121.993 26.3747 122.577 25.9519 122.577 25.3224C122.577 24.8637 122.397 24.414 121.408 23.7484C121.265 23.6515 121.115 23.5578 120.964 23.4637C120.206 22.99 119.429 22.5053 119.429 21.5449C119.429 21.0052 119.555 20.1958 120.518 19.3503C121.228 18.7477 122.128 18.298 122.982 18.298C123.881 18.307 124.664 18.7927 124.664 19.3593ZM147.24 25.455C145.909 26.8491 144.092 27.5686 143.12 27.5686C141.591 27.5686 140.737 26.5253 140.737 24.6815C140.755 23.0716 141.466 21.0299 142.896 19.7798C143.741 19.0333 145.09 18.3228 146.367 18.3228C147.231 18.3228 148.04 18.8084 148.04 19.3751C148.04 19.6808 147.815 19.9777 147.474 20.2655C147.132 20.5443 146.745 20.4633 146.583 20.2475C146.079 19.5639 145.612 19.3391 145.189 19.3391C144.766 19.3391 144.281 19.6629 143.858 20.4274C143.291 21.3987 142.914 22.9277 142.914 24.1958C142.896 25.464 143.336 26.2105 144.227 26.2105C145.313 26.2105 146.255 25.4737 146.796 25.0505L146.889 24.9783L147.24 25.455ZM158.946 20.3947C160.133 19.2884 161.644 18.335 162.39 18.335C162.876 18.335 163.074 18.8387 162.849 19.846L161.797 24.5049C161.617 25.4943 161.572 26.0609 162.004 26.0609C162.363 26.0609 163.056 25.4313 163.757 24.6128C164.459 23.8034 165.187 22.814 165.547 22.0945C165.673 21.6538 166.051 19.9989 166.231 18.8837L168.084 18.335H168.326C167.823 20.6555 167.319 22.9759 166.851 25.2964L166.832 25.3989C166.747 25.8419 166.717 25.9979 166.851 25.9979C167.013 25.9979 167.742 25.5752 168.263 25.1525L168.542 25.6561C167.436 26.7084 165.682 27.5719 165.313 27.5719C164.684 27.5719 164.522 26.9513 164.765 25.836L165.205 23.8214H165.142C164.135 25.3324 162.84 26.5016 161.959 27.0502C161.473 27.356 160.924 27.5719 160.448 27.5719C160.025 27.5719 159.197 27.2931 159.701 25.0086L160.591 20.9523L160.604 20.8974C160.756 20.2106 160.812 19.9629 160.627 19.9629C160.448 19.9629 159.683 20.4216 159.17 20.8893L158.946 20.3947ZM170.571 27.5797C171.03 27.5797 172.865 26.5904 173.917 25.5021L173.647 25.0164C173.143 25.4571 172.298 26.0058 172.118 26.0058C171.974 26.0058 171.956 25.8169 172.055 25.3762L174.394 13.9628C174.51 13.3602 174.475 13.0184 174.232 13.0184C174.159 13.0184 173.766 13.1162 173.202 13.2565C172.509 13.4289 171.557 13.6655 170.625 13.8639V14.3495H171.596C172.289 14.3495 172.307 14.4485 172.145 15.2579L170.004 25.709C169.708 27.139 170.022 27.5797 170.571 27.5797ZM182.004 25.2599C180.008 27.2745 178.254 27.5803 177.381 27.5803C176.437 27.5803 175.061 26.9957 175.061 24.6393C175.061 22.7865 175.969 20.6639 177.444 19.5936C178.308 18.9641 179.522 18.3435 180.655 18.3435C181.905 18.3435 182.616 19.045 182.616 19.9534C182.616 21.8062 179.171 23.0833 177.255 23.6859C177.237 23.8118 177.219 23.9917 177.219 24.0906C177.219 25.035 177.498 26.2312 178.694 26.2312C179.486 26.2312 180.529 25.8265 181.68 24.7832L182.004 25.2599ZM179.099 19.4497C178.533 19.7735 177.669 20.7179 177.327 23.0024C179.747 22.1749 180.61 21.3115 180.61 20.1782C180.61 19.4317 180.062 19.2339 179.765 19.2339C179.54 19.2249 179.306 19.3238 179.099 19.4497ZM186.996 18.335C186.33 18.335 184.837 19.2884 183.668 20.3947L183.929 20.9073C184.414 20.4486 185.179 19.9629 185.386 19.9629C185.547 19.9629 185.486 20.2384 185.326 20.957L185.323 20.9703L184.594 24.2801C184.352 25.3953 184.109 26.4836 183.812 27.5899L186.006 27.0502C186.132 25.917 186.609 23.7044 186.753 23.2368C187.535 21.8427 189.595 19.846 190.279 19.846C190.764 19.846 190.683 20.3317 190.485 21.1951L189.334 25.917C189.037 27.1312 189.28 27.5899 189.883 27.5899C190.315 27.5899 192.068 26.7264 193.175 25.6741L192.914 25.1705C192.365 25.5932 191.637 26.0159 191.457 26.0159C191.313 26.0159 191.349 25.836 191.475 25.2874C191.861 23.6325 192.266 21.9416 192.527 20.8893C193.076 18.5869 192.284 18.344 191.844 18.344C191.538 18.344 191.169 18.443 190.629 18.7038C189.901 19.0456 188.507 19.9899 187.14 21.6448H187.077L187.418 20.1698C187.679 19.0456 187.661 18.335 186.996 18.335Z" fill="black"/>
</svg>
